<?xml version="1.0" standalone="no"?>
<!DOCTYPE svg PUBLIC "-//W3C//DTD SVG 20010904//EN"
 "http://www.w3.org/TR/2001/REC-SVG-20010904/DTD/svg10.dtd">
<svg version="1.0" xmlns="http://www.w3.org/2000/svg"
 width="260.000000pt" height="260.000000pt" viewBox="0 0 260.000000 260.000000"
 preserveAspectRatio="xMidYMid meet">
<metadata>
Created by potrace 1.14, written by Peter Selinger 2001-2017
</metadata>
<g transform="translate(0.000000,260.000000) scale(0.100000,-0.100000)"
fill="#000000" stroke="none">
<path d="M0 1300 l0 -1300 1300 0 1300 0 0 1300 0 1300 -1300 0 -1300 0 0
-1300z m2261 961 c57 -57 55 -83 -40 -362 -43 -129 -89 -262 -102 -297 l-23
-62 36 -30 c42 -35 63 -87 55 -137 -12 -72 -235 -448 -385 -649 -125 -168
-243 -277 -363 -337 -137 -68 -197 -82 -364 -82 -132 1 -146 3 -234 33 -153
53 -278 139 -368 254 -68 87 -98 141 -135 250 -31 88 -32 101 -33 238 0 125 3
155 23 220 59 187 150 311 339 461 209 166 652 429 723 429 45 0 92 -23 123
-60 l28 -32 117 43 c241 88 467 157 516 158 43 1 52 -3 87 -38z"/>
<path d="M1889 2016 c-103 -35 -249 -89 -325 -120 -77 -31 -142 -56 -146 -56
-4 0 -16 31 -28 69 l-20 69 -68 -37 c-198 -109 -403 -241 -520 -335 -96 -76
-188 -178 -221 -244 -54 -108 -66 -158 -66 -277 0 -136 26 -225 97 -332 137
-204 389 -304 627 -248 238 56 417 256 735 817 l26 47 -70 21 c-38 11 -70 24
-70 29 0 4 20 55 43 112 59 140 204 553 193 548 0 0 -85 -29 -187 -63z m-652
-524 c74 -28 149 -86 199 -154 61 -84 79 -143 79 -264 0 -96 -2 -103 -38 -177
-136 -276 -478 -340 -698 -131 -141 135 -176 334 -89 511 54 109 170 203 288
233 59 15 200 5 259 -18z"/>
<path d="M954 1260 c-73 -29 -70 -143 3 -171 53 -20 123 29 123 86 0 32 -30
73 -61 84 -37 13 -37 13 -65 1z"/>
<path d="M1094 925 c-14 -21 -15 -31 -6 -51 29 -62 112 -48 112 19 0 42 -15
57 -57 57 -24 0 -37 -7 -49 -25z"/>
</g>
</svg>
